<?xml version="1.0" standalone="no"?>
<!DOCTYPE svg PUBLIC "-//W3C//DTD SVG 1.1//EN"
"http://www.w3.org/Graphics/SVG/1.1/DTD/svg11.dtd">

<svg width="331" height="439" view_box="0 0 331 439"
xmlns="http://www.w3.org/2000/svg"
xmlns:link="http://www.w3.org/1999/xlink">\n\n<desc>Généré par Mocodo 2.3.7 le Thu, 27 Sep 2018 13:16:51</desc>

<rect id="frame" x="0" y="0" width="331" height="439" fill="#f7f7f7" stroke="none" stroke-width="0"/>

<!-- Association RESERVER -->
<line x1="55" y1="253" x2="186" y2="253" stroke="#8073ac" stroke-width="2"/>
<text x="89" y="270.0" fill="#b35806" font-family="Verdana" font-size="12">0,1</text>
<line x1="291" y1="253" x2="186" y2="253" stroke="#8073ac" stroke-width="2"/>
<text x="233" y="270.0" fill="#b35806" font-family="Verdana" font-size="12">0,N</text>
<g id="association-RESERVER">
	<path d="M 214 219 a 14 14 90 0 1 14 14 V 244 h -84 V 233 a 14 14 90 0 1 14 -14" fill="#b2abd2" stroke="#b2abd2" stroke-width="0"/>
	<path d="M 228 244.0 v 29 a 14 14 90 0 1 -14 14 H 158 a 14 14 90 0 1 -14 -14 V 244.0 H 84" fill="#d8daeb" stroke="#d8daeb" stroke-width="0"/>
	<rect x="144" y="219" width="84" height="68" fill="none" rx="14" stroke="#8073ac" stroke-width="2"/>
	<line x1="144" y1="244" x2="228" y2="244" stroke="#8073ac" stroke-width="1"/>
	<text x="153" y="236.7" fill="#000000" font-family="Verdana" font-size="12">RESERVER</text>
	<text x="151" y="261.8" fill="#000000" font-family="Verdana" font-size="12">date_debut</text>
	<text x="151" y="278.8" fill="#000000" font-family="Verdana" font-size="12">date_fin</text>
</g>

<!-- Association CONFIGURER -->
<line x1="55" y1="253" x2="186" y2="143" stroke="#8073ac" stroke-width="2"/>
<text x="89" y="239.445926566" fill="#b35806" font-family="Verdana" font-size="12">1,1</text>
<line x1="186" y1="51" x2="186" y2="143" stroke="#8073ac" stroke-width="2"/>
<text x="191.0" y="110" fill="#b35806" font-family="Verdana" font-size="12">1,N</text>
<g id="association-CONFIGURER">
	<path d="M 220 118 a 14 14 90 0 1 14 14 V 143 h -96 V 132 a 14 14 90 0 1 14 -14" fill="#b2abd2" stroke="#b2abd2" stroke-width="0"/>
	<path d="M 234 143.0 v 11 a 14 14 90 0 1 -14 14 H 152 a 14 14 90 0 1 -14 -14 V 143.0 H 96" fill="#d8daeb" stroke="#d8daeb" stroke-width="0"/>
	<rect x="138" y="118" width="96" height="50" fill="none" rx="14" stroke="#8073ac" stroke-width="2"/>
	<line x1="138" y1="143" x2="234" y2="143" stroke="#8073ac" stroke-width="1"/>
	<text x="145" y="135.7" fill="#000000" font-family="Verdana" font-size="12">CONFIGURER</text>
</g>

<!-- Association APPARTIENT -->
<line x1="55" y1="253" x2="55" y2="388" stroke="#8073ac" stroke-width="2"/>
<text x="60.0" y="355" fill="#b35806" font-family="Verdana" font-size="12">0,1</text>
<line x1="186" y1="388" x2="55" y2="388" stroke="#8073ac" stroke-width="2"/>
<text x="106" y="405.0" fill="#b35806" font-family="Verdana" font-size="12">0,N</text>
<g id="association-APPARTIENT">
	<path d="M 87 363 a 14 14 90 0 1 14 14 V 388 h -92 V 377 a 14 14 90 0 1 14 -14" fill="#b2abd2" stroke="#b2abd2" stroke-width="0"/>
	<path d="M 101 388.0 v 11 a 14 14 90 0 1 -14 14 H 23 a 14 14 90 0 1 -14 -14 V 388.0 H 92" fill="#d8daeb" stroke="#d8daeb" stroke-width="0"/>
	<rect x="9" y="363" width="92" height="50" fill="none" rx="14" stroke="#8073ac" stroke-width="2"/>
	<line x1="9" y1="388" x2="101" y2="388" stroke="#8073ac" stroke-width="1"/>
	<text x="16" y="380.7" fill="#000000" font-family="Verdana" font-size="12">APPARTIENT</text>
</g>

<!-- Entity Liste_attente -->
<g id="entity-Liste_attente">
	<g id="frame-Liste_attente">
		<rect x="133" y="346" width="106" height="25" fill="#fdb863" stroke="#fdb863" stroke-width="0"/>
		<rect x="133" y="371.0" width="106" height="59" fill="#fee0b6" stroke="#fee0b6" stroke-width="0"/>
		<rect x="133" y="346" width="106" height="84" fill="none" stroke="#e08214" stroke-width="2"/>
		<line x1="133" y1="371" x2="239" y2="371" stroke="#e08214" stroke-width="1"/>
	</g>
	<text x="146" y="363.7" fill="#000000" font-family="Verdana" font-size="12">Liste_attente</text>
	<text x="138" y="388.8" fill="#000000" font-family="Verdana" font-size="12">id_liste_attente</text>
	<line x1="138" y1="391" x2="233" y2="391" stroke="#000000" stroke-width="1"/>
	<text x="138" y="405.8" fill="#000000" font-family="Verdana" font-size="12">first</text>
	<text x="138" y="422.8" fill="#000000" font-family="Verdana" font-size="12">first_free</text>
</g>

<!-- Entity Setting -->
<g id="entity-Setting">
	<g id="frame-Setting">
		<rect x="159" y="9" width="54" height="25" fill="#fdb863" stroke="#fdb863" stroke-width="0"/>
		<rect x="159" y="34.0" width="54" height="59" fill="#fee0b6" stroke="#fee0b6" stroke-width="0"/>
		<rect x="159" y="9" width="54" height="84" fill="none" stroke="#e08214" stroke-width="2"/>
		<line x1="159" y1="34" x2="213" y2="34" stroke="#e08214" stroke-width="1"/>
	</g>
	<text x="164" y="26.7" fill="#000000" font-family="Verdana" font-size="12">Setting</text>
	<text x="164" y="51.8" fill="#000000" font-family="Verdana" font-size="12">id</text>
	<line x1="164" y1="54" x2="176" y2="54" stroke="#000000" stroke-width="1"/>
	<text x="164" y="68.8" fill="#000000" font-family="Verdana" font-size="12">duree</text>
	<text x="164" y="85.8" fill="#000000" font-family="Verdana" font-size="12">etat</text>
</g>

<!-- Entity Place -->
<g id="entity-Place">
	<g id="frame-Place">
		<rect x="260" y="219" width="62" height="25" fill="#fdb863" stroke="#fdb863" stroke-width="0"/>
		<rect x="260" y="244.0" width="62" height="43" fill="#fee0b6" stroke="#fee0b6" stroke-width="0"/>
		<rect x="260" y="219" width="62" height="68" fill="none" stroke="#e08214" stroke-width="2"/>
		<line x1="260" y1="244" x2="322" y2="244" stroke="#e08214" stroke-width="1"/>
	</g>
	<text x="275" y="236.7" fill="#000000" font-family="Verdana" font-size="12">Place</text>
	<text x="265" y="261.8" fill="#000000" font-family="Verdana" font-size="12">id_place</text>
	<line x1="265" y1="264" x2="316" y2="264" stroke="#000000" stroke-width="1"/>
	<text x="265" y="278.8" fill="#000000" font-family="Verdana" font-size="12">nom</text>
</g>

<!-- Entity Users -->
<g id="entity-Users">
	<g id="frame-Users">
		<rect x="26" y="168" width="58" height="25" fill="#fdb863" stroke="#fdb863" stroke-width="0"/>
		<rect x="26" y="193.0" width="58" height="145" fill="#fee0b6" stroke="#fee0b6" stroke-width="0"/>
		<rect x="26" y="168" width="58" height="170" fill="none" stroke="#e08214" stroke-width="2"/>
		<line x1="26" y1="193" x2="84" y2="193" stroke="#e08214" stroke-width="1"/>
	</g>
	<text x="37" y="185.7" fill="#000000" font-family="Verdana" font-size="12">Users</text>
	<text x="31" y="210.7" fill="#000000" font-family="Verdana" font-size="12">id_user</text>
	<line x1="31" y1="213" x2="77" y2="213" stroke="#000000" stroke-width="1"/>
	<text x="31" y="227.7" fill="#000000" font-family="Verdana" font-size="12">prenom</text>
	<text x="31" y="244.7" fill="#000000" font-family="Verdana" font-size="12">nom</text>
	<text x="31" y="261.8" fill="#000000" font-family="Verdana" font-size="12">mail</text>
	<text x="31" y="278.8" fill="#000000" font-family="Verdana" font-size="12">mdp</text>
	<text x="31" y="295.8" fill="#000000" font-family="Verdana" font-size="12">tel</text>
	<text x="31" y="312.8" fill="#000000" font-family="Verdana" font-size="12">etat</text>
	<text x="31" y="329.8" fill="#000000" font-family="Verdana" font-size="12">level</text>
</g>
</svg>