<?xml version="1.0" standalone="no"?>
<!DOCTYPE svg PUBLIC "-//W3C//DTD SVG 1.1//EN"
"http://www.w3.org/Graphics/SVG/1.1/DTD/svg11.dtd">

<svg width="500" height="356" view_box="0 0 500 356"
xmlns="http://www.w3.org/2000/svg"
xmlns:link="http://www.w3.org/1999/xlink">\n\n<desc>Généré par Mocodo 2.3.7 le Fri, 28 Sep 2018 01:17:07</desc>

<rect id="frame" x="0" y="0" width="500" height="356" fill="#f7f7f7" stroke="none" stroke-width="0"/>

<!-- Association RESERVER -->
<line x1="252" y1="94" x2="355" y2="94" stroke="#5aae61" stroke-width="2"/>
<text x="286" y="111.0" fill="#762a83" font-family="Verdana" font-size="12">0,1</text>
<line x1="460" y1="94" x2="355" y2="94" stroke="#5aae61" stroke-width="2"/>
<text x="402" y="111.0" fill="#762a83" font-family="Verdana" font-size="12">0,N</text>
<g id="association-RESERVER">
	<path d="M 383 60 a 14 14 90 0 1 14 14 V 85 h -84 V 74 a 14 14 90 0 1 14 -14" fill="#a6dba0" stroke="#a6dba0" stroke-width="0"/>
	<path d="M 397 85.0 v 29 a 14 14 90 0 1 -14 14 H 327 a 14 14 90 0 1 -14 -14 V 85.0 H 84" fill="#d9f0d3" stroke="#d9f0d3" stroke-width="0"/>
	<rect x="313" y="60" width="84" height="68" fill="none" rx="14" stroke="#5aae61" stroke-width="2"/>
	<line x1="313" y1="85" x2="397" y2="85" stroke="#5aae61" stroke-width="1"/>
	<text x="322" y="77.7" fill="#000000" font-family="Verdana" font-size="12">RESERVER</text>
	<text x="320" y="102.8" fill="#000000" font-family="Verdana" font-size="12">date_debut</text>
	<text x="320" y="119.8" fill="#000000" font-family="Verdana" font-size="12">date_fin</text>
</g>

<!-- Association CONFIGURER -->
<line x1="252" y1="94" x2="143" y2="94" stroke="#5aae61" stroke-width="2"/>
<text x="197" y="111.0" fill="#762a83" font-family="Verdana" font-size="12">1,1</text>
<line x1="36" y1="94" x2="143" y2="94" stroke="#5aae61" stroke-width="2"/>
<text x="68" y="111.0" fill="#762a83" font-family="Verdana" font-size="12">1,N</text>
<g id="association-CONFIGURER">
	<path d="M 177 69 a 14 14 90 0 1 14 14 V 94 h -96 V 83 a 14 14 90 0 1 14 -14" fill="#a6dba0" stroke="#a6dba0" stroke-width="0"/>
	<path d="M 191 94.0 v 11 a 14 14 90 0 1 -14 14 H 109 a 14 14 90 0 1 -14 -14 V 94.0 H 96" fill="#d9f0d3" stroke="#d9f0d3" stroke-width="0"/>
	<rect x="95" y="69" width="96" height="50" fill="none" rx="14" stroke="#5aae61" stroke-width="2"/>
	<line x1="95" y1="94" x2="191" y2="94" stroke="#5aae61" stroke-width="1"/>
	<text x="102" y="86.7" fill="#000000" font-family="Verdana" font-size="12">CONFIGURER</text>
</g>

<!-- Association APPARTIENT -->
<line x1="252" y1="94" x2="252" y2="229" stroke="#5aae61" stroke-width="2"/>
<text x="257.0" y="196" fill="#762a83" font-family="Verdana" font-size="12">0,1</text>
<line x1="252" y1="313" x2="252" y2="229" stroke="#5aae61" stroke-width="2"/>
<text x="257.0" y="271" fill="#762a83" font-family="Verdana" font-size="12">0,N</text>
<g id="association-APPARTIENT">
	<path d="M 284 204 a 14 14 90 0 1 14 14 V 229 h -92 V 218 a 14 14 90 0 1 14 -14" fill="#a6dba0" stroke="#a6dba0" stroke-width="0"/>
	<path d="M 298 229.0 v 11 a 14 14 90 0 1 -14 14 H 220 a 14 14 90 0 1 -14 -14 V 229.0 H 92" fill="#d9f0d3" stroke="#d9f0d3" stroke-width="0"/>
	<rect x="206" y="204" width="92" height="50" fill="none" rx="14" stroke="#5aae61" stroke-width="2"/>
	<line x1="206" y1="229" x2="298" y2="229" stroke="#5aae61" stroke-width="1"/>
	<text x="213" y="221.7" fill="#000000" font-family="Verdana" font-size="12">APPARTIENT</text>
</g>

<!-- Entity Liste_attente -->
<g id="entity-Liste_attente">
	<g id="frame-Liste_attente">
		<rect x="199" y="279" width="106" height="25" fill="#c2a5cf" stroke="#c2a5cf" stroke-width="0"/>
		<rect x="199" y="304.0" width="106" height="43" fill="#e7d4e8" stroke="#e7d4e8" stroke-width="0"/>
		<rect x="199" y="279" width="106" height="68" fill="none" stroke="#9970ab" stroke-width="2"/>
		<line x1="199" y1="304" x2="305" y2="304" stroke="#9970ab" stroke-width="1"/>
	</g>
	<text x="212" y="296.7" fill="#000000" font-family="Verdana" font-size="12">Liste_attente</text>
	<text x="204" y="321.8" fill="#000000" font-family="Verdana" font-size="12">id_liste_attente</text>
	<line x1="204" y1="324" x2="299" y2="324" stroke="#000000" stroke-width="1"/>
	<text x="204" y="338.8" fill="#000000" font-family="Verdana" font-size="12">date</text>
</g>

<!-- Entity Setting -->
<g id="entity-Setting">
	<g id="frame-Setting">
		<rect x="9" y="52" width="54" height="25" fill="#c2a5cf" stroke="#c2a5cf" stroke-width="0"/>
		<rect x="9" y="77.0" width="54" height="59" fill="#e7d4e8" stroke="#e7d4e8" stroke-width="0"/>
		<rect x="9" y="52" width="54" height="84" fill="none" stroke="#9970ab" stroke-width="2"/>
		<line x1="9" y1="77" x2="63" y2="77" stroke="#9970ab" stroke-width="1"/>
	</g>
	<text x="14" y="69.7" fill="#000000" font-family="Verdana" font-size="12">Setting</text>
	<text x="14" y="94.8" fill="#000000" font-family="Verdana" font-size="12">id</text>
	<line x1="14" y1="97" x2="26" y2="97" stroke="#000000" stroke-width="1"/>
	<text x="14" y="111.8" fill="#000000" font-family="Verdana" font-size="12">duree</text>
	<text x="14" y="128.8" fill="#000000" font-family="Verdana" font-size="12">etat</text>
</g>

<!-- Entity Place -->
<g id="entity-Place">
	<g id="frame-Place">
		<rect x="429" y="60" width="62" height="25" fill="#c2a5cf" stroke="#c2a5cf" stroke-width="0"/>
		<rect x="429" y="85.0" width="62" height="43" fill="#e7d4e8" stroke="#e7d4e8" stroke-width="0"/>
		<rect x="429" y="60" width="62" height="68" fill="none" stroke="#9970ab" stroke-width="2"/>
		<line x1="429" y1="85" x2="491" y2="85" stroke="#9970ab" stroke-width="1"/>
	</g>
	<text x="444" y="77.7" fill="#000000" font-family="Verdana" font-size="12">Place</text>
	<text x="434" y="102.8" fill="#000000" font-family="Verdana" font-size="12">id_place</text>
	<line x1="434" y1="105" x2="485" y2="105" stroke="#000000" stroke-width="1"/>
	<text x="434" y="119.8" fill="#000000" font-family="Verdana" font-size="12">nom</text>
</g>

<!-- Entity Users -->
<g id="entity-Users">
	<g id="frame-Users">
		<rect x="223" y="9" width="58" height="25" fill="#c2a5cf" stroke="#c2a5cf" stroke-width="0"/>
		<rect x="223" y="34.0" width="58" height="145" fill="#e7d4e8" stroke="#e7d4e8" stroke-width="0"/>
		<rect x="223" y="9" width="58" height="170" fill="none" stroke="#9970ab" stroke-width="2"/>
		<line x1="223" y1="34" x2="281" y2="34" stroke="#9970ab" stroke-width="1"/>
	</g>
	<text x="234" y="26.7" fill="#000000" font-family="Verdana" font-size="12">Users</text>
	<text x="228" y="51.7" fill="#000000" font-family="Verdana" font-size="12">id_user</text>
	<line x1="228" y1="54" x2="274" y2="54" stroke="#000000" stroke-width="1"/>
	<text x="228" y="68.7" fill="#000000" font-family="Verdana" font-size="12">prenom</text>
	<text x="228" y="85.7" fill="#000000" font-family="Verdana" font-size="12">nom</text>
	<text x="228" y="102.8" fill="#000000" font-family="Verdana" font-size="12">mail</text>
	<text x="228" y="119.8" fill="#000000" font-family="Verdana" font-size="12">mdp</text>
	<text x="228" y="136.8" fill="#000000" font-family="Verdana" font-size="12">tel</text>
	<text x="228" y="153.8" fill="#000000" font-family="Verdana" font-size="12">etat</text>
	<text x="228" y="170.8" fill="#000000" font-family="Verdana" font-size="12">level</text>
</g>
</svg>