<?xml version="1.0" standalone="no"?>
<!DOCTYPE svg PUBLIC "-//W3C//DTD SVG 1.1//EN"
"http://www.w3.org/Graphics/SVG/1.1/DTD/svg11.dtd">

<svg width="323" height="390" view_box="0 0 323 390"
xmlns="http://www.w3.org/2000/svg"
xmlns:link="http://www.w3.org/1999/xlink">\n\n<desc>Généré par Mocodo 2.3.7 le Fri, 21 Sep 2018 07:19:11</desc>

<rect id="frame" x="0" y="0" width="323" height="390" fill="#f7f7f7" stroke="none" stroke-width="0"/>

<!-- Association RESERVER -->
<line x1="55" y1="111" x2="178" y2="111" stroke="#d6604d" stroke-width="2"/>
<text x="100" y="128.0" fill="#2166ac" font-family="Verdana" font-size="12">0,1</text>
<line x1="283" y1="111" x2="178" y2="111" stroke="#d6604d" stroke-width="2"/>
<text x="225" y="128.0" fill="#2166ac" font-family="Verdana" font-size="12">0,N</text>
<line x1="178" y1="238" x2="178" y2="111" stroke="#d6604d" stroke-width="2"/>
<text x="183.0" y="196" fill="#2166ac" font-family="Verdana" font-size="12">0,N</text>
<g id="association-RESERVER">
	<path d="M 206 77 a 14 14 90 0 1 14 14 V 102 h -84 V 91 a 14 14 90 0 1 14 -14" fill="#f4a582" stroke="#f4a582" stroke-width="0"/>
	<path d="M 220 102.0 v 29 a 14 14 90 0 1 -14 14 H 150 a 14 14 90 0 1 -14 -14 V 102.0 H 84" fill="#fddbc7" stroke="#fddbc7" stroke-width="0"/>
	<rect x="136" y="77" width="84" height="68" fill="none" rx="14" stroke="#d6604d" stroke-width="2"/>
	<line x1="136" y1="102" x2="220" y2="102" stroke="#d6604d" stroke-width="1"/>
	<text x="145" y="94.7" fill="#000000" font-family="Verdana" font-size="12">RESERVER</text>
	<text x="143" y="119.8" fill="#000000" font-family="Verdana" font-size="12">date_debut</text>
	<text x="143" y="136.8" fill="#000000" font-family="Verdana" font-size="12">date_fin</text>
</g>

<!-- Association APPARTIENT -->
<line x1="55" y1="111" x2="55" y2="339" stroke="#d6604d" stroke-width="2"/>
<text x="60.0" y="230" fill="#2166ac" font-family="Verdana" font-size="12">0,1</text>
<line x1="178" y1="339" x2="55" y2="339" stroke="#d6604d" stroke-width="2"/>
<text x="106" y="356.0" fill="#2166ac" font-family="Verdana" font-size="12">1,N</text>
<g id="association-APPARTIENT">
	<path d="M 87 314 a 14 14 90 0 1 14 14 V 339 h -92 V 328 a 14 14 90 0 1 14 -14" fill="#f4a582" stroke="#f4a582" stroke-width="0"/>
	<path d="M 101 339.0 v 11 a 14 14 90 0 1 -14 14 H 23 a 14 14 90 0 1 -14 -14 V 339.0 H 92" fill="#fddbc7" stroke="#fddbc7" stroke-width="0"/>
	<rect x="9" y="314" width="92" height="50" fill="none" rx="14" stroke="#d6604d" stroke-width="2"/>
	<line x1="9" y1="339" x2="101" y2="339" stroke="#d6604d" stroke-width="1"/>
	<text x="16" y="331.7" fill="#000000" font-family="Verdana" font-size="12">APPARTIENT</text>
</g>

<!-- Entity Liste_attente -->
<g id="entity-Liste_attente">
	<g id="frame-Liste_attente">
		<rect x="133" y="297" width="90" height="25" fill="#92c5de" stroke="#92c5de" stroke-width="0"/>
		<rect x="133" y="322.0" width="90" height="59" fill="#d1e5f0" stroke="#d1e5f0" stroke-width="0"/>
		<rect x="133" y="297" width="90" height="84" fill="none" stroke="#4393c3" stroke-width="2"/>
		<line x1="133" y1="322" x2="223" y2="322" stroke="#4393c3" stroke-width="1"/>
	</g>
	<text x="138" y="314.7" fill="#000000" font-family="Verdana" font-size="12">Liste_attente</text>
	<text x="138" y="339.8" fill="#000000" font-family="Verdana" font-size="12">id</text>
	<line x1="138" y1="342" x2="150" y2="342" stroke="#000000" stroke-width="1"/>
	<text x="138" y="356.8" fill="#000000" font-family="Verdana" font-size="12">first</text>
	<text x="138" y="373.8" fill="#000000" font-family="Verdana" font-size="12">first_free</text>
</g>

<!-- Entity Reservation -->
<g id="entity-Reservation">
	<g id="frame-Reservation">
		<rect x="137" y="204" width="82" height="25" fill="#92c5de" stroke="#92c5de" stroke-width="0"/>
		<rect x="137" y="229.0" width="82" height="43" fill="#d1e5f0" stroke="#d1e5f0" stroke-width="0"/>
		<rect x="137" y="204" width="82" height="68" fill="none" stroke="#4393c3" stroke-width="2"/>
		<line x1="137" y1="229" x2="219" y2="229" stroke="#4393c3" stroke-width="1"/>
	</g>
	<text x="142" y="221.7" fill="#000000" font-family="Verdana" font-size="12">Reservation</text>
	<text x="142" y="246.8" fill="#000000" font-family="Verdana" font-size="12">id_res</text>
	<line x1="142" y1="249" x2="180" y2="249" stroke="#000000" stroke-width="1"/>
	<text x="142" y="263.8" fill="#000000" font-family="Verdana" font-size="12">etat</text>
</g>

<!-- Entity Setting -->
<g id="entity-Setting">
	<g id="frame-Setting">
		<rect x="256" y="314" width="54" height="25" fill="#92c5de" stroke="#92c5de" stroke-width="0"/>
		<rect x="256" y="339.0" width="54" height="25" fill="#d1e5f0" stroke="#d1e5f0" stroke-width="0"/>
		<rect x="256" y="314" width="54" height="50" fill="none" stroke="#4393c3" stroke-width="2"/>
		<line x1="256" y1="339" x2="310" y2="339" stroke="#4393c3" stroke-width="1"/>
	</g>
	<text x="261" y="331.7" fill="#000000" font-family="Verdana" font-size="12">Setting</text>
	<text x="261" y="356.8" fill="#000000" font-family="Verdana" font-size="12">duree</text>
	<line x1="261" y1="359" x2="297" y2="359" stroke="#000000" stroke-width="1"/>
</g>

<!-- Entity Place -->
<g id="entity-Place">
	<g id="frame-Place">
		<rect x="252" y="77" width="62" height="25" fill="#92c5de" stroke="#92c5de" stroke-width="0"/>
		<rect x="252" y="102.0" width="62" height="43" fill="#d1e5f0" stroke="#d1e5f0" stroke-width="0"/>
		<rect x="252" y="77" width="62" height="68" fill="none" stroke="#4393c3" stroke-width="2"/>
		<line x1="252" y1="102" x2="314" y2="102" stroke="#4393c3" stroke-width="1"/>
	</g>
	<text x="267" y="94.7" fill="#000000" font-family="Verdana" font-size="12">Place</text>
	<text x="257" y="119.8" fill="#000000" font-family="Verdana" font-size="12">id_place</text>
	<line x1="257" y1="122" x2="308" y2="122" stroke="#000000" stroke-width="1"/>
	<text x="257" y="136.8" fill="#000000" font-family="Verdana" font-size="12">nom</text>
</g>

<!-- Entity Users -->
<g id="entity-Users">
	<g id="frame-Users">
		<rect x="15" y="9" width="80" height="25" fill="#92c5de" stroke="#92c5de" stroke-width="0"/>
		<rect x="15" y="34.0" width="80" height="179" fill="#d1e5f0" stroke="#d1e5f0" stroke-width="0"/>
		<rect x="15" y="9" width="80" height="204" fill="none" stroke="#4393c3" stroke-width="2"/>
		<line x1="15" y1="34" x2="95" y2="34" stroke="#4393c3" stroke-width="1"/>
	</g>
	<text x="37" y="26.7" fill="#000000" font-family="Verdana" font-size="12">Users</text>
	<text x="20" y="51.7" fill="#000000" font-family="Verdana" font-size="12">id</text>
	<line x1="20" y1="54" x2="32" y2="54" stroke="#000000" stroke-width="1"/>
	<text x="20" y="68.7" fill="#000000" font-family="Verdana" font-size="12">prenom</text>
	<text x="20" y="85.7" fill="#000000" font-family="Verdana" font-size="12">nom</text>
	<text x="20" y="102.7" fill="#000000" font-family="Verdana" font-size="12">mail</text>
	<text x="20" y="119.8" fill="#000000" font-family="Verdana" font-size="12">mdp</text>
	<text x="20" y="136.8" fill="#000000" font-family="Verdana" font-size="12">tel</text>
	<text x="20" y="153.8" fill="#000000" font-family="Verdana" font-size="12">etat</text>
	<text x="20" y="170.8" fill="#000000" font-family="Verdana" font-size="12">level</text>
	<text x="20" y="187.8" fill="#000000" font-family="Verdana" font-size="12">date_debut</text>
	<text x="20" y="204.8" fill="#000000" font-family="Verdana" font-size="12">date_fin</text>
</g>
</svg>