<?xml version="1.0" standalone="no"?>
<!DOCTYPE svg PUBLIC "-//W3C//DTD SVG 1.1//EN"
"http://www.w3.org/Graphics/SVG/1.1/DTD/svg11.dtd">

<svg width="323" height="356" view_box="0 0 323 356"
xmlns="http://www.w3.org/2000/svg"
xmlns:link="http://www.w3.org/1999/xlink">\n\n<desc>Généré par Mocodo 2.3.7 le Fri, 21 Sep 2018 07:30:22</desc>

<rect id="frame" x="0" y="0" width="323" height="356" fill="#f7f7f7" stroke="none" stroke-width="0"/>

<!-- Association RESERVER -->
<line x1="55" y1="94" x2="178" y2="94" stroke="#e08214" stroke-width="2"/>
<text x="89" y="111.0" fill="#542788" font-family="Verdana" font-size="12">0,1</text>
<line x1="283" y1="94" x2="178" y2="94" stroke="#e08214" stroke-width="2"/>
<text x="225" y="111.0" fill="#542788" font-family="Verdana" font-size="12">0,N</text>
<line x1="178" y1="204" x2="178" y2="94" stroke="#e08214" stroke-width="2"/>
<text x="183.0" y="162" fill="#542788" font-family="Verdana" font-size="12">0,N</text>
<g id="association-RESERVER">
	<path d="M 206 60 a 14 14 90 0 1 14 14 V 85 h -84 V 74 a 14 14 90 0 1 14 -14" fill="#fdb863" stroke="#fdb863" stroke-width="0"/>
	<path d="M 220 85.0 v 29 a 14 14 90 0 1 -14 14 H 150 a 14 14 90 0 1 -14 -14 V 85.0 H 84" fill="#fee0b6" stroke="#fee0b6" stroke-width="0"/>
	<rect x="136" y="60" width="84" height="68" fill="none" rx="14" stroke="#e08214" stroke-width="2"/>
	<line x1="136" y1="85" x2="220" y2="85" stroke="#e08214" stroke-width="1"/>
	<text x="145" y="77.7" fill="#000000" font-family="Verdana" font-size="12">RESERVER</text>
	<text x="143" y="102.8" fill="#000000" font-family="Verdana" font-size="12">date_debut</text>
	<text x="143" y="119.8" fill="#000000" font-family="Verdana" font-size="12">date_fin</text>
</g>

<!-- Association APPARTIENT -->
<line x1="55" y1="94" x2="55" y2="305" stroke="#e08214" stroke-width="2"/>
<text x="60.0" y="196" fill="#542788" font-family="Verdana" font-size="12">0,1</text>
<line x1="178" y1="305" x2="55" y2="305" stroke="#e08214" stroke-width="2"/>
<text x="106" y="322.0" fill="#542788" font-family="Verdana" font-size="12">0,N</text>
<g id="association-APPARTIENT">
	<path d="M 87 280 a 14 14 90 0 1 14 14 V 305 h -92 V 294 a 14 14 90 0 1 14 -14" fill="#fdb863" stroke="#fdb863" stroke-width="0"/>
	<path d="M 101 305.0 v 11 a 14 14 90 0 1 -14 14 H 23 a 14 14 90 0 1 -14 -14 V 305.0 H 92" fill="#fee0b6" stroke="#fee0b6" stroke-width="0"/>
	<rect x="9" y="280" width="92" height="50" fill="none" rx="14" stroke="#e08214" stroke-width="2"/>
	<line x1="9" y1="305" x2="101" y2="305" stroke="#e08214" stroke-width="1"/>
	<text x="16" y="297.7" fill="#000000" font-family="Verdana" font-size="12">APPARTIENT</text>
</g>

<!-- Entity Liste_attente -->
<g id="entity-Liste_attente">
	<g id="frame-Liste_attente">
		<rect x="133" y="263" width="90" height="25" fill="#b2abd2" stroke="#b2abd2" stroke-width="0"/>
		<rect x="133" y="288.0" width="90" height="59" fill="#d8daeb" stroke="#d8daeb" stroke-width="0"/>
		<rect x="133" y="263" width="90" height="84" fill="none" stroke="#8073ac" stroke-width="2"/>
		<line x1="133" y1="288" x2="223" y2="288" stroke="#8073ac" stroke-width="1"/>
	</g>
	<text x="138" y="280.7" fill="#000000" font-family="Verdana" font-size="12">Liste_attente</text>
	<text x="138" y="305.8" fill="#000000" font-family="Verdana" font-size="12">id</text>
	<line x1="138" y1="308" x2="150" y2="308" stroke="#000000" stroke-width="1"/>
	<text x="138" y="322.8" fill="#000000" font-family="Verdana" font-size="12">first</text>
	<text x="138" y="339.8" fill="#000000" font-family="Verdana" font-size="12">first_free</text>
</g>

<!-- Entity Reservation -->
<g id="entity-Reservation">
	<g id="frame-Reservation">
		<rect x="137" y="170" width="82" height="25" fill="#b2abd2" stroke="#b2abd2" stroke-width="0"/>
		<rect x="137" y="195.0" width="82" height="43" fill="#d8daeb" stroke="#d8daeb" stroke-width="0"/>
		<rect x="137" y="170" width="82" height="68" fill="none" stroke="#8073ac" stroke-width="2"/>
		<line x1="137" y1="195" x2="219" y2="195" stroke="#8073ac" stroke-width="1"/>
	</g>
	<text x="142" y="187.7" fill="#000000" font-family="Verdana" font-size="12">Reservation</text>
	<text x="142" y="212.8" fill="#000000" font-family="Verdana" font-size="12">id_res</text>
	<line x1="142" y1="215" x2="180" y2="215" stroke="#000000" stroke-width="1"/>
	<text x="142" y="229.8" fill="#000000" font-family="Verdana" font-size="12">etat</text>
</g>

<!-- Entity Setting -->
<g id="entity-Setting">
	<g id="frame-Setting">
		<rect x="256" y="280" width="54" height="25" fill="#b2abd2" stroke="#b2abd2" stroke-width="0"/>
		<rect x="256" y="305.0" width="54" height="25" fill="#d8daeb" stroke="#d8daeb" stroke-width="0"/>
		<rect x="256" y="280" width="54" height="50" fill="none" stroke="#8073ac" stroke-width="2"/>
		<line x1="256" y1="305" x2="310" y2="305" stroke="#8073ac" stroke-width="1"/>
	</g>
	<text x="261" y="297.7" fill="#000000" font-family="Verdana" font-size="12">Setting</text>
	<text x="261" y="322.8" fill="#000000" font-family="Verdana" font-size="12">duree</text>
	<line x1="261" y1="325" x2="297" y2="325" stroke="#000000" stroke-width="1"/>
</g>

<!-- Entity Place -->
<g id="entity-Place">
	<g id="frame-Place">
		<rect x="252" y="60" width="62" height="25" fill="#b2abd2" stroke="#b2abd2" stroke-width="0"/>
		<rect x="252" y="85.0" width="62" height="43" fill="#d8daeb" stroke="#d8daeb" stroke-width="0"/>
		<rect x="252" y="60" width="62" height="68" fill="none" stroke="#8073ac" stroke-width="2"/>
		<line x1="252" y1="85" x2="314" y2="85" stroke="#8073ac" stroke-width="1"/>
	</g>
	<text x="267" y="77.7" fill="#000000" font-family="Verdana" font-size="12">Place</text>
	<text x="257" y="102.8" fill="#000000" font-family="Verdana" font-size="12">id_place</text>
	<line x1="257" y1="105" x2="308" y2="105" stroke="#000000" stroke-width="1"/>
	<text x="257" y="119.8" fill="#000000" font-family="Verdana" font-size="12">nom</text>
</g>

<!-- Entity Users -->
<g id="entity-Users">
	<g id="frame-Users">
		<rect x="26" y="9" width="58" height="25" fill="#b2abd2" stroke="#b2abd2" stroke-width="0"/>
		<rect x="26" y="34.0" width="58" height="145" fill="#d8daeb" stroke="#d8daeb" stroke-width="0"/>
		<rect x="26" y="9" width="58" height="170" fill="none" stroke="#8073ac" stroke-width="2"/>
		<line x1="26" y1="34" x2="84" y2="34" stroke="#8073ac" stroke-width="1"/>
	</g>
	<text x="37" y="26.7" fill="#000000" font-family="Verdana" font-size="12">Users</text>
	<text x="31" y="51.7" fill="#000000" font-family="Verdana" font-size="12">id</text>
	<line x1="31" y1="54" x2="43" y2="54" stroke="#000000" stroke-width="1"/>
	<text x="31" y="68.7" fill="#000000" font-family="Verdana" font-size="12">prenom</text>
	<text x="31" y="85.7" fill="#000000" font-family="Verdana" font-size="12">nom</text>
	<text x="31" y="102.8" fill="#000000" font-family="Verdana" font-size="12">mail</text>
	<text x="31" y="119.8" fill="#000000" font-family="Verdana" font-size="12">mdp</text>
	<text x="31" y="136.8" fill="#000000" font-family="Verdana" font-size="12">tel</text>
	<text x="31" y="153.8" fill="#000000" font-family="Verdana" font-size="12">etat</text>
	<text x="31" y="170.8" fill="#000000" font-family="Verdana" font-size="12">level</text>
</g>
</svg>