<?xml version="1.0" standalone="no"?>
<!DOCTYPE svg PUBLIC "-//W3C//DTD SVG 1.1//EN"
"http://www.w3.org/Graphics/SVG/1.1/DTD/svg11.dtd">

<svg width="608" height="204" view_box="0 0 608 204"
xmlns="http://www.w3.org/2000/svg"
xmlns:link="http://www.w3.org/1999/xlink">\n\n<desc>Généré par Mocodo 2.3.7 le Fri, 28 Sep 2018 06:11:38</desc>

<rect id="frame" x="0" y="0" width="608" height="204" fill="#f7f7f7" stroke="none" stroke-width="0"/>

<!-- Association RESERVER -->
<line x1="252" y1="102" x2="353" y2="102" stroke="#5aae61" stroke-width="2"/>
<text x="286" y="119.0" fill="#762a83" font-family="Verdana" font-size="12">0,1</text>
<line x1="456" y1="102" x2="353" y2="102" stroke="#5aae61" stroke-width="2"/>
<text x="398" y="119.0" fill="#762a83" font-family="Verdana" font-size="12">0,N</text>
<line x1="559" y1="102" x2="353" y2="102" stroke="#5aae61" stroke-width="2"/>
<text x="493" y="119.0" fill="#762a83" font-family="Verdana" font-size="12">1,1</text>
<g id="association-RESERVER">
	<path d="M 379 77 a 14 14 90 0 1 14 14 V 102 h -80 V 91 a 14 14 90 0 1 14 -14" fill="#a6dba0" stroke="#a6dba0" stroke-width="0"/>
	<path d="M 393 102.0 v 11 a 14 14 90 0 1 -14 14 H 327 a 14 14 90 0 1 -14 -14 V 102.0 H 80" fill="#d9f0d3" stroke="#d9f0d3" stroke-width="0"/>
	<rect x="313" y="77" width="80" height="50" fill="none" rx="14" stroke="#5aae61" stroke-width="2"/>
	<line x1="313" y1="102" x2="393" y2="102" stroke="#5aae61" stroke-width="1"/>
	<text x="320" y="94.7" fill="#000000" font-family="Verdana" font-size="12">RESERVER</text>
	<text x="320" y="119.8" fill="#000000" font-family="Verdana" font-size="12">date_fin</text>
</g>

<!-- Association CONFIGURER -->
<line x1="252" y1="102" x2="143" y2="102" stroke="#5aae61" stroke-width="2"/>
<text x="197" y="119.0" fill="#762a83" font-family="Verdana" font-size="12">1,1</text>
<line x1="36" y1="102" x2="143" y2="102" stroke="#5aae61" stroke-width="2"/>
<text x="68" y="119.0" fill="#762a83" font-family="Verdana" font-size="12">1,N</text>
<g id="association-CONFIGURER">
	<path d="M 177 77 a 14 14 90 0 1 14 14 V 102 h -96 V 91 a 14 14 90 0 1 14 -14" fill="#a6dba0" stroke="#a6dba0" stroke-width="0"/>
	<path d="M 191 102.0 v 11 a 14 14 90 0 1 -14 14 H 109 a 14 14 90 0 1 -14 -14 V 102.0 H 96" fill="#d9f0d3" stroke="#d9f0d3" stroke-width="0"/>
	<rect x="95" y="77" width="96" height="50" fill="none" rx="14" stroke="#5aae61" stroke-width="2"/>
	<line x1="95" y1="102" x2="191" y2="102" stroke="#5aae61" stroke-width="1"/>
	<text x="102" y="94.7" fill="#000000" font-family="Verdana" font-size="12">CONFIGURER</text>
</g>

<!-- Entity date -->
<g id="entity-date">
	<g id="frame-date">
		<rect x="519" y="77" width="80" height="25" fill="#c2a5cf" stroke="#c2a5cf" stroke-width="0"/>
		<rect x="519" y="102.0" width="80" height="25" fill="#e7d4e8" stroke="#e7d4e8" stroke-width="0"/>
		<rect x="519" y="77" width="80" height="50" fill="none" stroke="#9970ab" stroke-width="2"/>
		<line x1="519" y1="102" x2="599" y2="102" stroke="#9970ab" stroke-width="1"/>
	</g>
	<text x="545" y="94.7" fill="#000000" font-family="Verdana" font-size="12">date</text>
	<text x="524" y="119.8" fill="#000000" font-family="Verdana" font-size="12">date_debut</text>
	<line x1="524" y1="122" x2="594" y2="122" stroke="#000000" stroke-width="1"/>
</g>

<!-- Entity Setting -->
<g id="entity-Setting">
	<g id="frame-Setting">
		<rect x="9" y="60" width="54" height="25" fill="#c2a5cf" stroke="#c2a5cf" stroke-width="0"/>
		<rect x="9" y="85.0" width="54" height="59" fill="#e7d4e8" stroke="#e7d4e8" stroke-width="0"/>
		<rect x="9" y="60" width="54" height="84" fill="none" stroke="#9970ab" stroke-width="2"/>
		<line x1="9" y1="85" x2="63" y2="85" stroke="#9970ab" stroke-width="1"/>
	</g>
	<text x="14" y="77.7" fill="#000000" font-family="Verdana" font-size="12">Setting</text>
	<text x="14" y="102.8" fill="#000000" font-family="Verdana" font-size="12">id</text>
	<line x1="14" y1="105" x2="26" y2="105" stroke="#000000" stroke-width="1"/>
	<text x="14" y="119.8" fill="#000000" font-family="Verdana" font-size="12">duree</text>
	<text x="14" y="136.8" fill="#000000" font-family="Verdana" font-size="12">etat</text>
</g>

<!-- Entity Place -->
<g id="entity-Place">
	<g id="frame-Place">
		<rect x="425" y="68" width="62" height="25" fill="#c2a5cf" stroke="#c2a5cf" stroke-width="0"/>
		<rect x="425" y="93.0" width="62" height="43" fill="#e7d4e8" stroke="#e7d4e8" stroke-width="0"/>
		<rect x="425" y="68" width="62" height="68" fill="none" stroke="#9970ab" stroke-width="2"/>
		<line x1="425" y1="93" x2="487" y2="93" stroke="#9970ab" stroke-width="1"/>
	</g>
	<text x="440" y="85.7" fill="#000000" font-family="Verdana" font-size="12">Place</text>
	<text x="430" y="110.8" fill="#000000" font-family="Verdana" font-size="12">id_place</text>
	<line x1="430" y1="113" x2="481" y2="113" stroke="#000000" stroke-width="1"/>
	<text x="430" y="127.8" fill="#000000" font-family="Verdana" font-size="12">nom</text>
</g>

<!-- Entity Users -->
<g id="entity-Users">
	<g id="frame-Users">
		<rect x="223" y="9" width="58" height="25" fill="#c2a5cf" stroke="#c2a5cf" stroke-width="0"/>
		<rect x="223" y="34.0" width="58" height="161" fill="#e7d4e8" stroke="#e7d4e8" stroke-width="0"/>
		<rect x="223" y="9" width="58" height="186" fill="none" stroke="#9970ab" stroke-width="2"/>
		<line x1="223" y1="34" x2="281" y2="34" stroke="#9970ab" stroke-width="1"/>
	</g>
	<text x="234" y="26.7" fill="#000000" font-family="Verdana" font-size="12">Users</text>
	<text x="228" y="51.7" fill="#000000" font-family="Verdana" font-size="12">id_user</text>
	<line x1="228" y1="54" x2="274" y2="54" stroke="#000000" stroke-width="1"/>
	<text x="228" y="68.7" fill="#000000" font-family="Verdana" font-size="12">prenom</text>
	<text x="228" y="85.7" fill="#000000" font-family="Verdana" font-size="12">nom</text>
	<text x="228" y="102.8" fill="#000000" font-family="Verdana" font-size="12">mail</text>
	<text x="228" y="119.8" fill="#000000" font-family="Verdana" font-size="12">mdp</text>
	<text x="228" y="136.8" fill="#000000" font-family="Verdana" font-size="12">tel</text>
	<text x="228" y="153.8" fill="#000000" font-family="Verdana" font-size="12">etat</text>
	<text x="228" y="170.8" fill="#000000" font-family="Verdana" font-size="12">level</text>
	<text x="228" y="187.8" fill="#000000" font-family="Verdana" font-size="12">rang</text>
</g>
</svg>