<?xml version="1.0" standalone="no"?>
<!DOCTYPE svg PUBLIC "-//W3C//DTD SVG 1.1//EN"
"http://www.w3.org/Graphics/SVG/1.1/DTD/svg11.dtd">

<svg width="294" height="338" view_box="0 0 294 338"
xmlns="http://www.w3.org/2000/svg"
xmlns:link="http://www.w3.org/1999/xlink">\n\n<desc>Généré par Mocodo 2.3.7 le Thu, 04 Oct 2018 06:00:13</desc>

<rect id="frame" x="0" y="0" width="294" height="338" fill="#f7f7f7" stroke="none" stroke-width="0"/>

<!-- Association RESERVER -->
<line x1="256" y1="102" x2="147" y2="220" stroke="#7fbc41" stroke-width="2"/>
<text x="200" y="132.06933469" fill="#c51b7d" font-family="Verdana" font-size="12">0,N</text>
<line x1="40" y1="295" x2="147" y2="220" stroke="#7fbc41" stroke-width="2"/>
<text x="76" y="284.931690238" fill="#c51b7d" font-family="Verdana" font-size="12">0,N</text>
<line x1="147" y1="295" x2="147" y2="220" stroke="#7fbc41" stroke-width="2"/>
<text x="152.0" y="262" fill="#c51b7d" font-family="Verdana" font-size="12">1,N</text>
<g id="association-RESERVER">
	<path d="M 173 195 a 14 14 90 0 1 14 14 V 220 h -80 V 209 a 14 14 90 0 1 14 -14" fill="#b8e186" stroke="#b8e186" stroke-width="0"/>
	<path d="M 187 220.0 v 11 a 14 14 90 0 1 -14 14 H 121 a 14 14 90 0 1 -14 -14 V 220.0 H 80" fill="#e6f5d0" stroke="#e6f5d0" stroke-width="0"/>
	<rect x="107" y="195" width="80" height="50" fill="none" rx="14" stroke="#7fbc41" stroke-width="2"/>
	<line x1="107" y1="220" x2="187" y2="220" stroke="#7fbc41" stroke-width="1"/>
	<text x="114" y="212.7" fill="#000000" font-family="Verdana" font-size="12">RESERVER</text>
	<text x="114" y="237.8" fill="#000000" font-family="Verdana" font-size="12">date_fin</text>
</g>

<!-- Association CONFIGURER -->
<line x1="256" y1="102" x2="147" y2="102" stroke="#7fbc41" stroke-width="2"/>
<text x="200" y="94.0" fill="#c51b7d" font-family="Verdana" font-size="12">1,N</text>
<line x1="40" y1="102" x2="147" y2="102" stroke="#7fbc41" stroke-width="2"/>
<text x="72" y="119.0" fill="#c51b7d" font-family="Verdana" font-size="12">1,1</text>
<g id="association-CONFIGURER">
	<path d="M 181 77 a 14 14 90 0 1 14 14 V 102 h -96 V 91 a 14 14 90 0 1 14 -14" fill="#b8e186" stroke="#b8e186" stroke-width="0"/>
	<path d="M 195 102.0 v 11 a 14 14 90 0 1 -14 14 H 113 a 14 14 90 0 1 -14 -14 V 102.0 H 96" fill="#e6f5d0" stroke="#e6f5d0" stroke-width="0"/>
	<rect x="99" y="77" width="96" height="50" fill="none" rx="14" stroke="#7fbc41" stroke-width="2"/>
	<line x1="99" y1="102" x2="195" y2="102" stroke="#7fbc41" stroke-width="1"/>
	<text x="106" y="94.7" fill="#000000" font-family="Verdana" font-size="12">CONFIGURER</text>
</g>

<!-- Entity date -->
<g id="entity-date">
	<g id="frame-date">
		<rect x="107" y="270" width="80" height="25" fill="#f1b6da" stroke="#f1b6da" stroke-width="0"/>
		<rect x="107" y="295.0" width="80" height="25" fill="#fde0ef" stroke="#fde0ef" stroke-width="0"/>
		<rect x="107" y="270" width="80" height="50" fill="none" stroke="#de77ae" stroke-width="2"/>
		<line x1="107" y1="295" x2="187" y2="295" stroke="#de77ae" stroke-width="1"/>
	</g>
	<text x="133" y="287.7" fill="#000000" font-family="Verdana" font-size="12">date</text>
	<text x="112" y="312.8" fill="#000000" font-family="Verdana" font-size="12">date_debut</text>
	<line x1="112" y1="315" x2="182" y2="315" stroke="#000000" stroke-width="1"/>
</g>

<!-- Entity Setting -->
<g id="entity-Setting">
	<g id="frame-Setting">
		<rect x="13" y="60" width="54" height="25" fill="#f1b6da" stroke="#f1b6da" stroke-width="0"/>
		<rect x="13" y="85.0" width="54" height="59" fill="#fde0ef" stroke="#fde0ef" stroke-width="0"/>
		<rect x="13" y="60" width="54" height="84" fill="none" stroke="#de77ae" stroke-width="2"/>
		<line x1="13" y1="85" x2="67" y2="85" stroke="#de77ae" stroke-width="1"/>
	</g>
	<text x="18" y="77.7" fill="#000000" font-family="Verdana" font-size="12">Setting</text>
	<text x="18" y="102.8" fill="#000000" font-family="Verdana" font-size="12">id</text>
	<line x1="18" y1="105" x2="30" y2="105" stroke="#000000" stroke-width="1"/>
	<text x="18" y="119.8" fill="#000000" font-family="Verdana" font-size="12">duree</text>
	<text x="18" y="136.8" fill="#000000" font-family="Verdana" font-size="12">etat</text>
</g>

<!-- Entity Place -->
<g id="entity-Place">
	<g id="frame-Place">
		<rect x="9" y="261" width="62" height="25" fill="#f1b6da" stroke="#f1b6da" stroke-width="0"/>
		<rect x="9" y="286.0" width="62" height="43" fill="#fde0ef" stroke="#fde0ef" stroke-width="0"/>
		<rect x="9" y="261" width="62" height="68" fill="none" stroke="#de77ae" stroke-width="2"/>
		<line x1="9" y1="286" x2="71" y2="286" stroke="#de77ae" stroke-width="1"/>
	</g>
	<text x="24" y="278.7" fill="#000000" font-family="Verdana" font-size="12">Place</text>
	<text x="14" y="303.8" fill="#000000" font-family="Verdana" font-size="12">id_place</text>
	<line x1="14" y1="306" x2="65" y2="306" stroke="#000000" stroke-width="1"/>
	<text x="14" y="320.8" fill="#000000" font-family="Verdana" font-size="12">nom</text>
</g>

<!-- Entity Users -->
<g id="entity-Users">
	<g id="frame-Users">
		<rect x="227" y="9" width="58" height="25" fill="#f1b6da" stroke="#f1b6da" stroke-width="0"/>
		<rect x="227" y="34.0" width="58" height="161" fill="#fde0ef" stroke="#fde0ef" stroke-width="0"/>
		<rect x="227" y="9" width="58" height="186" fill="none" stroke="#de77ae" stroke-width="2"/>
		<line x1="227" y1="34" x2="285" y2="34" stroke="#de77ae" stroke-width="1"/>
	</g>
	<text x="238" y="26.7" fill="#000000" font-family="Verdana" font-size="12">Users</text>
	<text x="232" y="51.7" fill="#000000" font-family="Verdana" font-size="12">id_user</text>
	<line x1="232" y1="54" x2="278" y2="54" stroke="#000000" stroke-width="1"/>
	<text x="232" y="68.7" fill="#000000" font-family="Verdana" font-size="12">prenom</text>
	<text x="232" y="85.7" fill="#000000" font-family="Verdana" font-size="12">nom</text>
	<text x="232" y="102.8" fill="#000000" font-family="Verdana" font-size="12">mail</text>
	<text x="232" y="119.8" fill="#000000" font-family="Verdana" font-size="12">mdp</text>
	<text x="232" y="136.8" fill="#000000" font-family="Verdana" font-size="12">tel</text>
	<text x="232" y="153.8" fill="#000000" font-family="Verdana" font-size="12">etat</text>
	<text x="232" y="170.8" fill="#000000" font-family="Verdana" font-size="12">level</text>
	<text x="232" y="187.8" fill="#000000" font-family="Verdana" font-size="12">rang</text>
</g>
</svg>